<svg width="250" height="54" viewBox="0 0 250 54" fill="none" xmlns="http://www.w3.org/2000/svg">
<path d="M250 53.4131C245.888 53.4131 241.792 53.4131 237.679 53.4131C237.346 53.4131 237.171 53.3338 236.997 53.0324C233.091 46.5283 229.185 40.04 225.264 33.5359C225.2 33.4248 225.121 33.3138 224.978 33.0917C224.978 39.9131 224.978 46.6234 224.978 53.3655C221.31 53.3655 217.69 53.3655 214.054 53.3655C214.054 40.3731 214.054 27.3966 214.054 14.3726C214.197 14.3726 214.34 14.3726 214.483 14.3726C218.452 14.3726 222.422 14.3726 226.375 14.3726C226.661 14.3726 226.819 14.4519 226.962 14.7057C230.884 21.3526 234.822 27.9995 238.743 34.6464C238.823 34.7733 238.902 34.9002 239.029 35.1064C239.029 28.1422 239.029 21.2891 239.029 14.3726C242.712 14.3726 246.348 14.3726 250 14.3726C250 27.3966 250 40.4049 250 53.4131Z" fill="white"/>
<path d="M133.605 53.3814C130.049 53.3814 126.556 53.3814 123.047 53.3814C123.047 40.389 123.047 27.4125 123.047 14.3884C123.174 14.3884 123.317 14.3884 123.444 14.3884C128.017 14.3884 132.589 14.3884 137.162 14.3726C137.463 14.3726 137.591 14.4836 137.702 14.7533C140.432 21.2257 143.163 27.6822 145.894 34.1387C145.926 34.218 145.974 34.2973 146.021 34.4084C146.593 33.0441 147.164 31.7116 147.72 30.379C149.911 25.1599 152.102 19.9407 154.293 14.7216C154.388 14.4995 154.468 14.3567 154.769 14.3567C159.374 14.3726 163.994 14.3726 168.598 14.3726C168.694 14.3726 168.789 14.3726 168.916 14.3726C168.916 27.3808 168.916 40.3731 168.916 53.3655C165.375 53.3655 161.835 53.3655 158.262 53.3655C158.262 46.1634 158.262 38.9613 158.262 31.7592C158.231 31.7592 158.215 31.7433 158.183 31.7433C158.135 31.8226 158.088 31.8861 158.056 31.9654C155.039 38.993 152.023 46.0206 149.022 53.0482C148.911 53.3179 148.784 53.3972 148.498 53.3972C146.767 53.3814 145.053 53.3814 143.322 53.3972C143.052 53.3972 142.941 53.3179 142.83 53.08C139.829 46.0523 136.813 39.0247 133.796 31.9971C133.748 31.8861 133.685 31.775 133.574 31.6798C133.605 38.9137 133.605 46.1317 133.605 53.3814Z" fill="white"/>
<path d="M211.752 53.3971C207.751 53.3971 203.782 53.3971 199.765 53.3971C199.432 52.3184 199.082 51.2397 198.749 50.1451C198.527 49.4312 198.288 48.7173 198.082 47.9876C198.019 47.7655 197.923 47.7179 197.717 47.7179C193.351 47.7179 189 47.7179 184.634 47.7179C184.333 47.7179 184.285 47.8924 184.221 48.0828C183.682 49.8437 183.142 51.6045 182.586 53.3971C178.807 53.3971 175.013 53.3971 171.202 53.3971C171.52 52.4453 171.821 51.5252 172.139 50.5892C176.156 38.628 180.189 26.6668 184.206 14.7056C184.285 14.4518 184.396 14.3883 184.65 14.3883C189.223 14.4042 193.795 14.4042 198.368 14.3883C198.622 14.3883 198.733 14.4518 198.812 14.7056C203.083 27.4759 207.37 40.2461 211.641 53.0164C211.705 53.1274 211.72 53.2543 211.752 53.3971ZM191.176 25.5088C189.81 29.9347 188.461 34.2814 187.111 38.6439C189.81 38.6439 192.493 38.6439 195.192 38.6439C193.859 34.2814 192.541 29.9347 191.176 25.5088Z" fill="white"/>
<path d="M105.011 21.765C105.011 19.2586 105.011 16.8473 105.011 14.4043C105.487 14.4043 105.932 14.4043 106.36 14.4043C107.075 14.4043 107.773 14.4201 108.488 14.4043C108.805 14.3884 108.901 14.4995 108.869 14.8009C108.869 14.8485 108.869 14.896 108.869 14.9595C108.869 27.6187 108.869 40.2938 108.869 52.953C108.869 53.4924 108.869 53.4924 108.313 53.4924C107.345 53.4924 106.392 53.4924 105.424 53.4924C105.297 53.4924 105.17 53.4765 105.011 53.4765C105.011 50.9542 105.011 48.4319 105.011 45.9254C104.979 45.9096 104.963 45.9096 104.931 45.8937C104.709 46.1951 104.487 46.5124 104.249 46.8138C101.486 50.2721 97.9614 52.5406 93.6111 53.5083C91.8487 53.9049 90.0705 54.0635 88.2764 54.0159C79.5281 53.8573 71.5261 48.067 69.3033 38.8344C68.8111 36.8197 68.6524 34.7732 68.7794 32.711C69.0493 28.0629 70.637 23.9383 73.733 20.4483C76.5909 17.228 80.1632 15.1816 84.3865 14.2456C86.0536 13.8808 87.7524 13.7539 89.4672 13.8014C95.1353 13.9442 99.9143 16.07 103.757 20.2421C104.153 20.6863 104.534 21.1939 105.011 21.765ZM72.6057 33.9007C72.5899 35.9789 72.9392 37.9936 73.6854 39.9289C76.2416 46.5441 81.7827 50.0024 88.2129 50.2879C89.6577 50.3514 91.0866 50.2245 92.4997 49.9231C96.2149 49.114 99.2951 47.2738 101.661 44.2915C104.534 40.6587 105.582 36.5024 105.09 31.9178C104.916 30.2838 104.534 28.6975 103.852 27.2063C101.105 21.1781 96.3578 18.0212 89.8006 17.5294C88.2446 17.4025 86.6887 17.5611 85.1645 17.8943C82.0526 18.5764 79.3376 19.9883 77.1466 22.3203C74.0982 25.5723 72.6375 29.4589 72.6057 33.9007Z" fill="white"/>
<path d="M0 14.3883C1.27016 14.3883 2.4927 14.3725 3.73111 14.3883C4.57259 14.3883 4.35031 14.2297 4.65197 15.0229C8.9229 26.2861 13.1779 37.5334 17.433 48.7967C17.4489 48.8601 17.4806 48.9077 17.5441 49.0346C17.8776 48.1462 18.1951 47.3372 18.4968 46.5123C22.4819 35.9153 26.467 25.3184 30.4363 14.7215C30.5316 14.4676 30.6586 14.3725 30.9285 14.3883C32.0716 14.4042 33.2148 14.3883 34.3421 14.3883C34.4532 14.3883 34.5643 14.4042 34.7231 14.4042C34.5961 14.7532 34.4849 15.0705 34.3738 15.3877C29.5631 27.9518 24.7523 40.5317 19.9416 53.0957C19.8304 53.3813 19.6875 53.4606 19.4018 53.4606C18.0363 53.4447 16.6709 53.4447 15.2896 53.4606C15.0038 53.4606 14.8927 53.3654 14.7974 53.1116C9.8914 40.3254 5.00127 27.5235 0.0952623 14.7056C0.0635082 14.6263 0.0476311 14.547 0 14.3883Z" fill="white"/>
<path d="M53.3469 17.8784C51.3781 17.8784 49.457 17.8784 47.52 17.8784C47.52 16.7204 47.52 15.5782 47.52 14.4043C49.457 14.4043 51.3781 14.4043 53.3469 14.4043C53.3469 14.2139 53.3469 14.0553 53.3469 13.8966C53.3469 10.4542 53.3469 7.01179 53.3469 3.56937C53.3469 3.20451 53.4104 3.06173 53.8232 3.0776C54.9346 3.10933 56.046 3.09346 57.2209 3.09346C57.2209 6.86902 57.2209 10.6287 57.2209 14.4043C60.8567 14.4043 64.4449 14.4043 68.049 14.4043C68.049 15.5623 68.049 16.7045 68.049 17.8784C64.4608 17.8784 60.8726 17.8784 57.2368 17.8784C57.2368 18.0529 57.2368 18.1957 57.2368 18.3226C57.2368 26.0165 57.2368 33.7104 57.2368 41.4043C57.2368 42.9589 57.3638 44.4977 58.11 45.9254C59.2531 48.0987 61.0314 49.352 63.4764 49.6375C64.3179 49.7327 65.1594 49.7644 66.0168 49.7962C66.6677 49.812 67.3028 49.7962 67.9855 49.7962C67.9855 51.0177 67.9855 52.2233 67.9855 53.4924C67.8585 53.4924 67.7315 53.4924 67.5886 53.4924C66.3025 53.4765 65.0324 53.5083 63.7463 53.4289C58.1576 53.0324 54.5377 49.4789 53.6485 44.577C53.458 43.4983 53.3786 42.372 53.3786 41.2615C53.3628 33.6628 53.3628 26.0482 53.3628 18.4495C53.3469 18.2433 53.3469 18.0846 53.3469 17.8784Z" fill="white"/>
<path d="M38.9623 14.4042C40.2801 14.4042 41.5185 14.4042 42.7886 14.4042C42.7886 27.4124 42.7886 40.4048 42.7886 53.4606C42.6616 53.4606 42.5187 53.4606 42.3917 53.4606C41.3915 53.4606 40.3912 53.4447 39.391 53.4764C39.0258 53.4923 38.9464 53.3654 38.9464 53.0323C38.9623 48.289 38.9464 43.5458 38.9464 38.8025C38.9464 30.8548 38.9464 22.9071 38.9464 14.9753C38.9623 14.7849 38.9623 14.6104 38.9623 14.4042Z" fill="white"/>
<path d="M42.8204 0C42.8204 1.38014 42.8204 2.74442 42.8204 4.12456C41.5344 4.12456 40.2801 4.12456 38.994 4.12456C38.994 2.76028 38.994 1.396 38.994 0C40.2642 0 41.5185 0 42.8204 0Z" fill="white"/>
</svg>
