<svg width="20" height="20" viewBox="0 0 20 20" fill="none" xmlns="http://www.w3.org/2000/svg">
<path d="M10.8024 0C11.0574 0.0386252 11.313 0.0772504 11.568 0.115876C12.9979 0.331968 14.3134 0.847145 15.5201 1.63948C15.9863 1.94588 16.1065 2.53308 15.8102 2.99345C15.5212 3.44182 14.9395 3.58223 14.4723 3.28888C13.7118 2.81233 12.9091 2.44226 12.0389 2.21416C7.65256 1.0648 3.1162 3.84269 2.1551 8.27154C1.26821 12.358 3.61792 16.4084 7.6118 17.6763C12.0881 19.0976 16.88 16.3238 17.8845 11.728C18.1703 10.4205 18.1411 9.11972 17.7705 7.83204C17.6608 7.45153 17.6613 7.09973 17.9237 6.78342C18.4029 6.20561 19.352 6.35593 19.5924 7.06737C19.8281 7.76419 19.9734 8.48554 19.9932 9.22464C20.0047 9.64743 19.999 10.0713 19.9948 10.4946C19.9802 12.0307 19.5485 13.4609 18.8053 14.7882C17.2693 17.5322 14.9447 19.2708 11.8503 19.8184C8.12606 20.4771 4.95426 19.3366 2.42738 16.5165C1.12187 15.0591 0.362504 13.3236 0.0964896 11.3903C-0.582397 6.46502 2.38871 1.9678 6.88012 0.499518C7.61859 0.257849 8.37169 0.0934312 9.14778 0.0354934C9.19168 0.0323617 9.23401 0.0125271 9.27687 0C9.78538 0 10.2939 0 10.8024 0Z" fill="#42682A"/>
<path d="M8.57918 12.7136C8.65928 12.6064 8.70261 12.5374 8.7555 12.4789C10.6155 10.4375 12.4765 8.39608 14.338 6.35636C14.7355 5.92112 15.2851 5.88136 15.6745 6.25473C16.0685 6.63252 16.1108 7.28426 15.7687 7.71838C15.7234 7.77582 15.6735 7.8283 15.6246 7.88187C13.6216 10.0785 11.6185 12.275 9.61497 14.4711C8.97163 15.1758 8.20335 15.1764 7.56052 14.4722C6.47184 13.2792 5.38366 12.0862 4.29548 10.8926C4.02898 10.5999 3.9388 10.2502 4.04107 9.85256C4.14233 9.46096 4.38717 9.21628 4.74486 9.12902C5.0965 9.04285 5.39777 9.16492 5.65218 9.44439C6.57915 10.464 7.50863 11.4803 8.4356 12.4993C8.48396 12.5518 8.51772 12.6202 8.57918 12.7136Z" fill="#42682A"/>
</svg>
