<svg width="40" height="40" viewBox="0 0 40 40" fill="none" xmlns="http://www.w3.org/2000/svg">
<g clip-path="url(#clip0_3_39)">
<path d="M21.605 0C22.115 0.0772523 22.6261 0.154505 23.1362 0.231757C25.996 0.663952 28.6268 1.69433 31.0403 3.27905C31.9726 3.89185 32.213 5.06629 31.6204 5.98705C31.0424 6.88381 29.879 7.16463 28.9446 6.57793C27.4238 5.6248 25.8183 4.88464 24.078 4.42844C15.3053 2.12966 6.23272 7.68556 4.31054 16.5435C2.53678 24.7166 7.23615 32.8176 15.2238 35.3534C24.1762 38.1961 33.76 32.6485 35.7689 23.4565C36.3406 20.8414 36.2821 18.2399 35.541 15.6645C35.3215 14.9034 35.3226 14.1998 35.8473 13.5672C36.8058 12.4115 38.7039 12.7122 39.1847 14.1351C39.6561 15.5288 39.9467 16.9715 39.9864 18.4497C40.0094 19.2953 39.9979 20.143 39.9895 20.9897C39.9603 24.062 39.0969 26.9224 37.6106 29.5772C34.5387 35.0652 29.8895 38.5426 23.7006 39.6377C16.2523 40.9552 9.9088 38.6742 4.85511 33.0337C2.24412 30.119 0.725393 26.6479 0.19337 22.7811C-1.16439 12.9304 4.77776 3.93569 13.7605 0.99906C15.2374 0.515711 16.7436 0.186867 18.2957 0.0709886C18.3835 0.0647249 18.4682 0.0250548 18.5539 0C19.5709 0 20.5879 0 21.605 0Z" fill="#42682A"/>
<path d="M17.0906 25.2614C17.2568 25.0589 17.3467 24.9284 17.4564 24.8178C21.3154 20.9593 25.1765 17.1009 29.0386 13.2456C29.8633 12.4229 31.0037 12.3478 31.8116 13.0535C32.629 13.7675 32.7168 14.9994 32.0071 15.82C31.913 15.9285 31.8096 16.0277 31.7082 16.129C27.5523 20.2808 23.3965 24.4325 19.2396 28.5833C17.9048 29.9154 16.3109 29.9164 14.9771 28.5854C12.7184 26.3304 10.4607 24.0755 8.20298 21.8195C7.65006 21.2662 7.46296 20.6054 7.67514 19.8538C7.88523 19.1136 8.39322 18.6511 9.13533 18.4862C9.8649 18.3233 10.49 18.5541 11.0178 19.0823C12.941 21.0094 14.8695 22.9303 16.7927 24.8564C16.893 24.9556 16.9631 25.085 17.0906 25.2614Z" fill="#42682A"/>
</g>
<defs>
<clipPath id="clip0_3_39">
<rect width="40" height="40" fill="white"/>
</clipPath>
</defs>
</svg>
